<svg xmlns="http://www.w3.org/2000/svg" width="1440" height="900"><path d="M903,603L1201,324L936,290Z" fill="#4797b9" stroke="#4797b9" stroke-width="1.51"/><path d="M903,603L1242,630L1201,324Z" fill="#2e7ab3" stroke="#2e7ab3" stroke-width="1.51"/><path d="M936,290L549,258L903,603Z" fill="#53b4c1" stroke="#53b4c1" stroke-width="1.51"/><path d="M1201,324L952,-28L936,290Z" fill="#8aaab3" stroke="#8aaab3" stroke-width="1.51"/><path d="M952,-28L549,258L936,290Z" fill="#96c9bc" stroke="#96c9bc" stroke-width="1.51"/><path d="M903,603L845,967L1242,630Z" fill="#275ea9" stroke="#275ea9" stroke-width="1.51"/><path d="M508,616L845,967L903,603Z" fill="#397bb1" stroke="#397bb1" stroke-width="1.51"/><path d="M1242,630L1573,272L1201,324Z" fill="#44719d" stroke="#44719d" stroke-width="1.51"/><path d="M1201,324L1266,-114L952,-28Z" fill="#9ba1b4" stroke="#9ba1b4" stroke-width="1.51"/><path d="M549,258L508,616L903,603Z" fill="#4cb3c2" stroke="#4cb3c2" stroke-width="1.51"/><path d="M1242,630L1642,637L1573,272Z" fill="#245c8c" stroke="#245c8c" stroke-width="1.51"/><path d="M845,967L1308,998L1242,630Z" fill="#1c3b85" stroke="#1c3b85" stroke-width="1.51"/><path d="M1573,272L1266,-114L1201,324Z" fill="#858696" stroke="#858696" stroke-width="1.51"/><path d="M1308,998L1642,637L1242,630Z" fill="#1b3180" stroke="#1b3180" stroke-width="1.51"/><path d="M1308,998L1620,984L1642,637Z" fill="#0c1f5f" stroke="#0c1f5f" stroke-width="1.51"/><path d="M1920,-87L1570,-157L1573,272Z" fill="#898497" stroke="#898497" stroke-width="1.51"/><path d="M1573,272L1570,-157L1266,-114Z" fill="#898498" stroke="#898498" stroke-width="1.51"/><path d="M508,616L482,1052L845,967Z" fill="#456e91" stroke="#456e91" stroke-width="1.51"/><path d="M911,1361L1309,1332L1308,998Z" fill="#17327a" stroke="#17327a" stroke-width="1.51"/><path d="M1308,998L1309,1332L1620,984Z" fill="#0a1e5c" stroke="#0a1e5c" stroke-width="1.51"/><path d="M132,253L183,679L508,616Z" fill="#95c7bc" stroke="#95c7bc" stroke-width="1.51"/><path d="M508,616L183,679L482,1052Z" fill="#7e88a7" stroke="#7e88a7" stroke-width="1.51"/><path d="M952,-28L489,-147L549,258Z" fill="#b2ddc8" stroke="#b2ddc8" stroke-width="1.51"/><path d="M942,-499L489,-147L952,-28Z" fill="#a9d2ce" stroke="#a9d2ce" stroke-width="1.51"/><path d="M942,-499L952,-28L1266,-114Z" fill="#a0aec4" stroke="#a0aec4" stroke-width="1.51"/><path d="M132,253L508,616L549,258Z" fill="#97d4ba" stroke="#97d4ba" stroke-width="1.51"/><path d="M1642,637L1938,276L1573,272Z" fill="#3e6a8b" stroke="#3e6a8b" stroke-width="1.51"/><path d="M2012,689L1938,276L1642,637Z" fill="#20588b" stroke="#20588b" stroke-width="1.51"/><path d="M911,1361L1308,998L845,967Z" fill="#184483" stroke="#184483" stroke-width="1.51"/><path d="M541,1344L911,1361L845,967Z" fill="#29618c" stroke="#29618c" stroke-width="1.51"/><path d="M125,-50L132,253L549,258Z" fill="#ddf2b3" stroke="#ddf2b3" stroke-width="1.51"/><path d="M1570,-157L1207,-485L1266,-114Z" fill="#938ca8" stroke="#938ca8" stroke-width="1.51"/><path d="M1207,-485L942,-499L1266,-114Z" fill="#9ea3bf" stroke="#9ea3bf" stroke-width="1.51"/><path d="M2020,927L1642,637L1620,984Z" fill="#0f2265" stroke="#0f2265" stroke-width="1.51"/><path d="M2020,927L2012,689L1642,637Z" fill="#172f78" stroke="#172f78" stroke-width="1.51"/><path d="M482,1052L541,1344L845,967Z" fill="#406a8b" stroke="#406a8b" stroke-width="1.51"/><path d="M183,679L159,943L482,1052Z" fill="#7a7f89" stroke="#7a7f89" stroke-width="1.51"/><path d="M-113,679L159,943L183,679Z" fill="#9b96b2" stroke="#9b96b2" stroke-width="1.51"/><path d="M206,1375L541,1344L482,1052Z" fill="#677887" stroke="#677887" stroke-width="1.51"/><path d="M2036,-421L1920,-87L1938,276Z" fill="#898498" stroke="#898498" stroke-width="1.51"/><path d="M1938,276L1920,-87L1573,272Z" fill="#7c7f86" stroke="#7c7f86" stroke-width="1.51"/><path d="M1570,-157L1554,-516L1207,-485Z" fill="#898498" stroke="#898498" stroke-width="1.51"/><path d="M942,-499L497,-427L489,-147Z" fill="#b6dfcd" stroke="#b6dfcd" stroke-width="1.51"/><path d="M489,-147L125,-50L549,258Z" fill="#ddf2c3" stroke="#ddf2c3" stroke-width="1.51"/><path d="M213,-496L125,-50L489,-147Z" fill="#ecf8c6" stroke="#ecf8c6" stroke-width="1.51"/><path d="M1672,1345L2020,927L1620,984Z" fill="#081d58" stroke="#081d58" stroke-width="1.51"/><path d="M1309,1332L1672,1345L1620,984Z" fill="#081d58" stroke="#081d58" stroke-width="1.51"/><path d="M911,1361L1672,1345L1309,1332Z" fill="#14266f" stroke="#14266f" stroke-width="1.51"/><path d="M2036,-421L1554,-516L1570,-157Z" fill="#898498" stroke="#898498" stroke-width="1.51"/><path d="M1207,-485L1554,-516L942,-499Z" fill="#9d96ba" stroke="#9d96ba" stroke-width="1.51"/><path d="M159,943L206,1375L482,1052Z" fill="#787e87" stroke="#787e87" stroke-width="1.51"/><path d="M132,253L-113,679L183,679Z" fill="#a3c9c7" stroke="#a3c9c7" stroke-width="1.51"/><path d="M-235,266L-113,679L132,253Z" fill="#b6dfcd" stroke="#b6dfcd" stroke-width="1.51"/><path d="M-135,1285L206,1375L159,943Z" fill="#878390" stroke="#878390" stroke-width="1.51"/><path d="M541,1344L206,1375L911,1361Z" fill="#4a6e89" stroke="#4a6e89" stroke-width="1.51"/><path d="M-162,-54L-235,266L132,253Z" fill="#eff9c5" stroke="#eff9c5" stroke-width="1.51"/><path d="M497,-427L213,-496L489,-147Z" fill="#dcf1c7" stroke="#dcf1c7" stroke-width="1.51"/><path d="M942,-499L213,-496L497,-427Z" fill="#c1e6ca" stroke="#c1e6ca" stroke-width="1.51"/><path d="M1554,-516L213,-496L942,-499Z" fill="#a3c6cd" stroke="#a3c6cd" stroke-width="1.51"/><path d="M-162,-54L132,253L125,-50Z" fill="#fafdcc" stroke="#fafdcc" stroke-width="1.51"/><path d="M-199,-398L-162,-54L125,-50Z" fill="#ffffd9" stroke="#ffffd9" stroke-width="1.51"/><path d="M2020,927L2036,-421L2012,689Z" fill="#3d6a8b" stroke="#3d6a8b" stroke-width="1.51"/><path d="M2012,689L2036,-421L1938,276Z" fill="#787e87" stroke="#787e87" stroke-width="1.51"/><path d="M1920,-87L2036,-421L1570,-157Z" fill="#898498" stroke="#898498" stroke-width="1.51"/><path d="M206,1375L2003,1388L911,1361Z" fill="#184281" stroke="#184281" stroke-width="1.51"/><path d="M911,1361L2003,1388L1672,1345Z" fill="#081d58" stroke="#081d58" stroke-width="1.51"/><path d="M1672,1345L2003,1388L2020,927Z" fill="#081d58" stroke="#081d58" stroke-width="1.51"/><path d="M-480,671L-223,1031L-113,679Z" fill="#9c92b7" stroke="#9c92b7" stroke-width="1.51"/><path d="M-113,679L-223,1031L159,943Z" fill="#8c869c" stroke="#8c869c" stroke-width="1.51"/><path d="M-223,1031L-135,1285L159,943Z" fill="#898498" stroke="#898498" stroke-width="1.51"/><path d="M213,-496L-199,-398L125,-50Z" fill="#fdfed4" stroke="#fdfed4" stroke-width="1.51"/><path d="M-510,-41L-542,291L-235,266Z" fill="#ecf8c6" stroke="#ecf8c6" stroke-width="1.51"/><path d="M-223,1031L-489,1397L-135,1285Z" fill="#898498" stroke="#898498" stroke-width="1.51"/><path d="M-235,266L-480,671L-113,679Z" fill="#a6cbce" stroke="#a6cbce" stroke-width="1.51"/><path d="M-542,291L-480,671L-235,266Z" fill="#b5decd" stroke="#b5decd" stroke-width="1.51"/><path d="M-510,-41L-235,266L-162,-54Z" fill="#fbfdcf" stroke="#fbfdcf" stroke-width="1.51"/><path d="M-199,-398L-510,-41L-162,-54Z" fill="#ffffd9" stroke="#ffffd9" stroke-width="1.51"/><path d="M-480,671L-572,993L-223,1031Z" fill="#8a8498" stroke="#8a8498" stroke-width="1.51"/><path d="M-542,291L-572,993L-480,671Z" fill="#a0b0c4" stroke="#a0b0c4" stroke-width="1.51"/><path d="M-572,993L-489,1397L-223,1031Z" fill="#898498" stroke="#898498" stroke-width="1.51"/><path d="M-135,1285L-489,1397L206,1375Z" fill="#898498" stroke="#898498" stroke-width="1.51"/><path d="M206,1375L-489,1397L2003,1388Z" fill="#476d8a" stroke="#476d8a" stroke-width="1.51"/><path d="M-542,291L-589,-486L-572,993Z" fill="#d7efc8" stroke="#d7efc8" stroke-width="1.51"/><path d="M-510,-41L-589,-486L-542,291Z" fill="#ffffd9" stroke="#ffffd9" stroke-width="1.51"/><path d="M-199,-398L-589,-486L-510,-41Z" fill="#ffffd9" stroke="#ffffd9" stroke-width="1.51"/><path d="M213,-496L-589,-486L-199,-398Z" fill="#ffffd9" stroke="#ffffd9" stroke-width="1.51"/><path d="M1554,-516L-589,-486L213,-496Z" fill="#ddf2c7" stroke="#ddf2c7" stroke-width="1.51"/></svg>