<svg id="merge" xmlns="http://www.w3.org/2000/svg" xmlns:xlink="http://www.w3.org/1999/xlink" width="1280" height="720" viewBox="0 0 1280 720">
  <metadata><?xpacket begin="﻿" id="W5M0MpCehiHzreSzNTczkc9d"?>
<x:xmpmeta xmlns:x="adobe:ns:meta/" x:xmptk="Adobe XMP Core 5.6-c140 79.160451, 2017/05/06-01:08:21        ">
   <rdf:RDF xmlns:rdf="http://www.w3.org/1999/02/22-rdf-syntax-ns#">
      <rdf:Description rdf:about=""/>
   </rdf:RDF>
</x:xmpmeta>
                                                                                                    
                                                                                                    
                                                                                                    
                                                                                                    
                                                                                                    
                                                                                                    
                                                                                                    
                                                                                                    
                                                                                                    
                                                                                                    
                                                                                                    
                                                                                                    
                                                                                                    
                                                                                                    
                                                                                                    
                                                                                                    
                                                                                                    
                                                                                                    
                                                                                                    
                                                                                                    
                           
<?xpacket end="w"?></metadata>
<defs>
    <style>
      .cls-1 {
        fill-rule: evenodd;
        filter: url(#filter);
      }
    </style>
    <filter id="filter" x="49" y="63" width="1197" height="632" filterUnits="userSpaceOnUse">
      <feGaussianBlur result="blur" stdDeviation="15.133" in="SourceAlpha"/>
      <feFlood result="flood" flood-color="#c2c3c3"/>
      <feComposite result="composite" operator="out" in2="blur"/>
      <feOffset result="offset"/>
      <feComposite result="composite-2" operator="in" in2="SourceAlpha"/>
      <feBlend result="blend" in2="SourceGraphic"/>
    </filter>
  </defs>
  <path class="cls-1" d="M49,614H528v81H49V614Zm653,0H905v81H702V614ZM905,488h341V695H905V488Zm-32,12h33v34H873V500Zm-17,17h33v34H856V517Zm-16,17h33v34H840V534Zm-17,17h33v34H823V551Zm-16,17h33v34H807V568Zm-17,17h33v34H790V585ZM1222,63h24V489h-24V63Zm-32,348h32v11h-32V411ZM49,86H481v97H49V86Zm432,0L867.278,228.161l-19.353,52.587L461.647,138.586ZM846,227h164v54H846V227Zm162,70h46v11h-46V297Zm-53-16h55v27H955V281Z"/>
</svg>
