<svg id="merge" xmlns="http://www.w3.org/2000/svg" width="1280" height="720" viewBox="0 0 1280 720">
  <metadata><?xpacket begin="﻿" id="W5M0MpCehiHzreSzNTczkc9d"?>
<x:xmpmeta xmlns:x="adobe:ns:meta/" x:xmptk="Adobe XMP Core 5.6-c140 79.160451, 2017/05/06-01:08:21        ">
   <rdf:RDF xmlns:rdf="http://www.w3.org/1999/02/22-rdf-syntax-ns#">
      <rdf:Description rdf:about=""/>
   </rdf:RDF>
</x:xmpmeta>
                                                                                                    
                                                                                                    
                                                                                                    
                                                                                                    
                                                                                                    
                                                                                                    
                                                                                                    
                                                                                                    
                                                                                                    
                                                                                                    
                                                                                                    
                                                                                                    
                                                                                                    
                                                                                                    
                                                                                                    
                                                                                                    
                                                                                                    
                                                                                                    
                                                                                                    
                                                                                                    
                           
<?xpacket end="w"?></metadata>
<defs>
    <style>
      .cls-1 {
        fill-rule: evenodd;
      }
    </style>
  </defs>
  <path class="cls-1" d="M27,614H506v81H27V614ZM93,138H525v97H93V138Zm432,0L911.278,280.161l-19.353,52.587L505.647,190.586ZM890,279h164v54H890V279ZM702,614H905v81H702V614ZM905,488h341V695H905V488Zm-32,12h33v34H873V500Zm-17,17h33v34H856V517Zm-16,17h33v34H840V534Zm-17,17h33v34H823V551Zm-16,17h33v34H807V568Zm-17,17h33v34H790V585ZM1222,63h24V489h-24V63Zm-32,348h32v11h-32V411Zm-138-62h46v11h-46V349Zm-53-16h55v27H999V333Z"/>
</svg>
